<?xml version="1.0" encoding="UTF-8"?>
<svg id="Assets" xmlns="http://www.w3.org/2000/svg" viewBox="0 0 568.17 500">
  <defs>
    <style>
      .cls-1 {
        fill: #101820;
      }
          .cls-r { fill: #ef3340; }
    </style>
  </defs>
  <g>
    <path class="cls-1" d="M112.44,352.9v-30.69h-11.08v-7.33h30.64v7.33h-11.41v30.69h-8.15Z"/>
    <path class="cls-1" d="M148.94,314.87h-7.28l-14.88,38.02h8.04l3.01-7.99h14.59l2.99,7.99h8.37l-14.83-38.02ZM140.31,338.34l2.17-5.76c.29-.83.6-1.68.92-2.55.32-.87.63-1.76.92-2.69.29-.92.57-1.82.84-2.7.27.85.55,1.74.85,2.67.32,1.01.64,1.97.95,2.88.31.9.57,1.65.79,2.23l2.21,5.92h-9.65Z"/>
    <path class="cls-1" d="M166.21,352.9v-38.03h8.15v38.03h-8.15Z"/>
    <path class="cls-1" d="M181.21,352.9v-38.03h8.15v30.69h17.22v7.33h-25.37Z"/>
    <path class="cls-1" d="M226.6,353.44c-2.79,0-5.36-.49-7.71-1.47-2.35-.98-4.41-2.34-6.17-4.1-1.76-1.76-3.11-3.84-4.05-6.25-.94-2.41-1.41-5.02-1.41-7.85s.47-5.48,1.41-7.85c.94-2.37,2.29-4.44,4.05-6.22,1.76-1.77,3.81-3.15,6.17-4.13,2.35-.98,4.92-1.47,7.71-1.47s5.41.49,7.74,1.47c2.34.98,4.38,2.35,6.14,4.13,1.76,1.77,3.1,3.86,4.05,6.25.94,2.39,1.41,5,1.41,7.82s-.47,5.43-1.41,7.82c-.94,2.39-2.29,4.47-4.05,6.25-1.76,1.77-3.8,3.15-6.14,4.13-2.34.98-4.92,1.47-7.74,1.47ZM226.6,345.73c1.59,0,3.07-.29,4.43-.87,1.36-.58,2.53-1.41,3.5-2.5.98-1.09,1.75-2.35,2.31-3.8.56-1.45.84-3.04.84-4.78s-.28-3.33-.84-4.78c-.56-1.45-1.33-2.71-2.31-3.78-.98-1.07-2.15-1.9-3.5-2.5s-2.83-.9-4.43-.9-3.06.3-4.4.9c-1.34.6-2.52,1.43-3.53,2.5-1.01,1.07-1.78,2.33-2.31,3.78-.53,1.45-.79,3.04-.79,4.78s.26,3.33.79,4.78c.52,1.45,1.29,2.72,2.31,3.8,1.01,1.09,2.19,1.92,3.53,2.5,1.34.58,2.81.87,4.4.87Z"/>
    <path class="cls-1" d="M272.83,338.07c.29-.13.57-.28.85-.44,1.92-1.09,3.43-2.56,4.54-4.43,1.1-1.87,1.66-3.94,1.66-6.22s-.55-4.38-1.66-6.19c-1.1-1.81-2.62-3.25-4.54-4.32-1.92-1.07-4.06-1.6-6.41-1.6h-16.84v38.02h7.88v-13.63h6.01l7.68,13.63,9.45.06-8.62-14.88ZM258.31,321.93h7.55c1.2,0,2.25.23,3.15.68.91.45,1.59,1.08,2.07,1.87.47.8.71,1.74.71,2.83,0,1.01-.2,1.93-.6,2.74-.4.82-.97,1.45-1.71,1.9-.74.45-1.6.68-2.58.68h-8.58v-10.7Z"/>
    <polygon class="cls-1" points="311.35 345.73 311.35 352.9 285.27 352.9 285.27 314.87 310.97 314.87 310.97 322.04 293.2 322.04 293.2 330.03 308.36 330.03 308.36 336.98 293.2 336.98 293.2 345.73 311.35 345.73"/>
    <path class="cls-1" d="M349.66,326.17c-.87-2.32-2.13-4.32-3.77-6-1.65-1.68-3.61-2.99-5.87-3.91-2.26-.93-4.79-1.39-7.58-1.39h-15.59v38.02h15.59c2.79,0,5.32-.46,7.6-1.39,2.28-.92,4.24-2.23,5.87-3.91,1.63-1.68,2.88-3.69,3.75-6.03.87-2.34,1.31-4.9,1.31-7.69s-.43-5.4-1.31-7.71ZM342,338.72c-.47,1.45-1.17,2.67-2.09,3.67-.92,1-2.04,1.78-3.34,2.34-1.3.56-2.77.84-4.4.84h-7.17v-23.36h7.17c1.63,0,3.1.28,4.4.84,1.3.56,2.42,1.35,3.34,2.36.93,1.01,1.62,2.24,2.09,3.67.47,1.43.71,3.03.71,4.81s-.23,3.39-.71,4.83Z"/>
    <path class="cls-1" d="M122.16,361.43h-7.28l-14.88,38.03h8.04l3.01-7.99h14.59l2.99,7.99h8.37l-14.83-38.03ZM113.53,384.9l2.17-5.76c.29-.83.6-1.68.92-2.55.33-.87.63-1.77.92-2.69.29-.92.57-1.81.84-2.7.27.85.55,1.74.85,2.67.32,1.01.64,1.97.95,2.88.31.91.57,1.65.79,2.23l2.22,5.92h-9.65Z"/>
    <path class="cls-1" d="M139.41,399.46v-38.03h16.13c2.24,0,4.28.53,6.11,1.6,1.83,1.07,3.28,2.53,4.35,4.37,1.07,1.85,1.6,3.93,1.6,6.25s-.53,4.47-1.6,6.36c-1.07,1.88-2.52,3.38-4.35,4.48-1.83,1.11-3.87,1.66-6.11,1.66h-7.99v13.31h-8.15ZM147.45,378.81h7.17c.87,0,1.65-.23,2.34-.68.69-.45,1.24-1.06,1.66-1.82.42-.76.62-1.63.62-2.61s-.21-1.84-.62-2.58c-.42-.74-.97-1.32-1.66-1.74-.69-.42-1.47-.62-2.34-.62h-7.17v10.05Z"/>
    <path class="cls-1" d="M171.06,399.46v-38.03h16.13c2.25,0,4.28.53,6.11,1.6,1.83,1.07,3.28,2.53,4.35,4.37,1.07,1.85,1.6,3.93,1.6,6.25s-.53,4.47-1.6,6.36c-1.07,1.88-2.52,3.38-4.35,4.48-1.83,1.11-3.87,1.66-6.11,1.66h-7.99v13.31h-8.15ZM179.1,378.81h7.17c.87,0,1.65-.23,2.34-.68.69-.45,1.24-1.06,1.66-1.82.42-.76.62-1.63.62-2.61s-.21-1.84-.62-2.58c-.42-.74-.97-1.32-1.66-1.74-.69-.42-1.47-.62-2.34-.62h-7.17v10.05Z"/>
    <path class="cls-1" d="M202.71,399.46v-38.03h8.15v30.69h17.22v7.33h-25.37Z"/>
    <path class="cls-1" d="M231.53,399.46v-38.03h8.15v38.03h-8.15Z"/>
    <path class="cls-1" d="M263.49,400c-2.79,0-5.35-.48-7.69-1.44-2.34-.96-4.36-2.32-6.08-4.07-1.72-1.76-3.05-3.84-3.99-6.25-.94-2.41-1.41-5.04-1.41-7.9s.49-5.37,1.47-7.74c.98-2.37,2.35-4.44,4.13-6.19,1.77-1.76,3.86-3.12,6.25-4.1,2.39-.98,4.98-1.47,7.77-1.47,1.81,0,3.59.24,5.35.73,1.76.49,3.37,1.2,4.83,2.15,1.47.94,2.72,2.06,3.78,3.37l-5.11,5.65c-.87-.87-1.77-1.62-2.69-2.25-.92-.63-1.9-1.12-2.93-1.47-1.03-.34-2.13-.52-3.29-.52-1.56,0-3.01.29-4.37.87-1.36.58-2.54,1.39-3.56,2.42-1.01,1.03-1.82,2.28-2.42,3.75-.6,1.47-.9,3.09-.9,4.86s.29,3.45.87,4.92c.58,1.47,1.39,2.72,2.44,3.75,1.05,1.03,2.31,1.83,3.78,2.39,1.47.56,3.09.84,4.86.84,1.16,0,2.28-.16,3.37-.49s2.09-.78,3.01-1.36c.92-.58,1.75-1.25,2.47-2.01l3.97,6.36c-.87.98-2.04,1.87-3.5,2.66-1.47.8-3.11,1.42-4.92,1.87-1.81.45-3.64.68-5.49.68Z"/>
    <path class="cls-1" d="M299.86,361.43h-7.28l-14.88,38.03h8.04l3.01-7.99h14.59l2.99,7.99h8.37l-14.83-38.03ZM291.22,384.9l2.17-5.76c.29-.83.6-1.68.92-2.55.32-.87.63-1.77.92-2.69.29-.92.56-1.81.84-2.69.27.85.55,1.74.85,2.67.33,1.01.64,1.97.95,2.88.31.91.57,1.65.79,2.23l2.22,5.92h-9.65Z"/>
    <path class="cls-1" d="M320.67,399.46v-30.69h-11.08v-7.33h30.64v7.33h-11.41v30.69h-8.15Z"/>
    <path class="cls-1" d="M343.3,399.46v-38.03h8.15v38.03h-8.15Z"/>
    <path class="cls-1" d="M375.43,400c-2.79,0-5.36-.49-7.71-1.47-2.35-.98-4.41-2.34-6.17-4.1-1.76-1.76-3.11-3.84-4.05-6.25-.94-2.41-1.41-5.02-1.41-7.85s.47-5.48,1.41-7.85c.94-2.37,2.29-4.44,4.05-6.22,1.76-1.77,3.81-3.15,6.17-4.13,2.35-.98,4.92-1.47,7.71-1.47s5.41.49,7.74,1.47c2.34.98,4.38,2.35,6.14,4.13,1.76,1.77,3.1,3.86,4.05,6.25.94,2.39,1.41,5,1.41,7.82s-.47,5.43-1.41,7.82c-.94,2.39-2.29,4.47-4.05,6.25-1.76,1.77-3.8,3.15-6.14,4.13-2.34.98-4.92,1.47-7.74,1.47ZM375.43,392.29c1.59,0,3.07-.29,4.43-.87,1.36-.58,2.53-1.41,3.5-2.5.98-1.09,1.75-2.35,2.31-3.8.56-1.45.84-3.04.84-4.78s-.28-3.33-.84-4.78c-.56-1.45-1.33-2.71-2.31-3.78-.98-1.07-2.15-1.9-3.5-2.5-1.36-.6-2.83-.9-4.43-.9s-3.06.3-4.4.9c-1.34.6-2.52,1.43-3.53,2.5-1.01,1.07-1.78,2.33-2.31,3.78-.53,1.45-.79,3.04-.79,4.78s.26,3.33.79,4.78c.52,1.45,1.29,2.72,2.31,3.8,1.01,1.09,2.19,1.92,3.53,2.5,1.34.58,2.81.87,4.4.87Z"/>
    <path class="cls-1" d="M432.94,361.43v38.03h-7.39l-19.09-25.53c.06.61.11,1.18.16,1.7.13,1.32.23,2.47.3,3.45.07.98.14,1.83.19,2.55.06.73.09,1.41.11,2.06.02.65.03,1.34.03,2.06v13.69h-7.99v-38.03h7.28l19.21,25.96c-.03-.28-.06-.56-.09-.84-.11-1.07-.21-2.15-.3-3.26-.09-1.1-.16-2.25-.22-3.42-.06-1.18-.1-2.43-.13-3.75-.04-1.32-.06-2.76-.06-4.32v-10.37h7.98Z"/>
    <path class="cls-1" d="M452.19,400c-2.35,0-4.5-.29-6.44-.87-1.94-.58-3.66-1.43-5.16-2.55-1.5-1.12-2.85-2.48-4.05-4.07l5.11-5.81c1.77,2.46,3.54,4.14,5.3,5.02,1.76.89,3.67,1.33,5.73,1.33,1.12,0,2.13-.15,3.01-.46.89-.31,1.58-.75,2.09-1.33.51-.58.76-1.27.76-2.06,0-.58-.13-1.11-.38-1.6-.25-.49-.62-.92-1.09-1.3-.47-.38-1.03-.72-1.68-1.03-.65-.31-1.38-.58-2.17-.81-.8-.24-1.67-.43-2.61-.57-2.03-.47-3.8-1.04-5.32-1.71-1.52-.67-2.79-1.5-3.8-2.5-1.01-1-1.77-2.13-2.25-3.4-.49-1.27-.73-2.7-.73-4.29s.36-3.14,1.09-4.54c.72-1.39,1.73-2.6,3.01-3.61,1.28-1.01,2.77-1.79,4.45-2.34,1.68-.54,3.47-.81,5.35-.81,2.32,0,4.35.26,6.08.79,1.74.53,3.25,1.28,4.54,2.25,1.28.98,2.36,2.17,3.23,3.59l-5.16,5c-.76-1.01-1.58-1.86-2.47-2.55-.89-.69-1.85-1.2-2.88-1.55-1.03-.34-2.09-.52-3.18-.52-1.2,0-2.23.15-3.1.46-.87.31-1.55.75-2.04,1.33-.49.58-.73,1.29-.73,2.12,0,.65.16,1.23.49,1.74.33.51.8.95,1.41,1.33.62.38,1.36.72,2.23,1,.87.29,1.83.54,2.88.76,1.99.4,3.78.92,5.38,1.58,1.59.65,2.96,1.44,4.1,2.36,1.14.92,2.02,2.01,2.63,3.26.62,1.25.92,2.65.92,4.21,0,2.57-.62,4.76-1.85,6.57-1.23,1.81-2.93,3.2-5.11,4.16-2.17.96-4.71,1.44-7.6,1.44Z"/>
  </g>
  <g>
    <rect class="cls-r" x="203.72" y="100.01" width="68.93" height="68.92" rx="25.46" ry="25.46"/>
    <path class="cls-r" d="M272.65,227.74c-.07,4.45.05,13.56,0,18.03.06,15.11-12.86,26.64-27.88,25.55-4.02.02-11.5-.02-15.54,0-13.87.06-25.33-11.18-25.51-25.06-.03-5.81.02-13.72-.01-19.54-.31-10.37-5.35-19.19-12.94-26.44-7.71-7.36-16.94-12.34-26.53-16.86-10.08-4.75-20.56-8.65-31.3-11.63-9.05-2.51-18.73-4.67-25.27-11.94-4.62-5.09-6.72-11.43-6.36-18.73-.03-3.99.02-11.52,0-15.57-.09-14,11.4-25.57,25.41-25.55,5.21.06,13.92-.05,18.37,0,13.77.09,24.94,11.47,25.14,24.85.03,5.46-.01,13.67.02,19.34.14,26.11,29.58,39.78,50.12,48.16,6.89,2.81,13.95,5.21,21.13,7.16,7.27,1.98,15.06,3.63,21.22,8.23s9.9,12.25,9.92,19.97v.02Z"/>
    <rect class="cls-r" x="101.32" y="202.43" width="68.93" height="68.92" rx="25.46" ry="25.46"/>
  </g>
</svg>