<?xml version="1.0" encoding="UTF-8"?>
<svg id="Layer_1" data-name="Layer 1" xmlns="http://www.w3.org/2000/svg" viewBox="0 0 512 512">
  <defs>
    <style>
      .cls-1 {
        fill: #ef3340;
      }

      .cls-2 {
        fill: #fcf6f0;
      }
    </style>
  </defs>
  <rect class="cls-1" x=".3" width="511.41" height="512"/>
  <g>
    <rect class="cls-2" x="284.67" y="110.35" width="117.98" height="117.95" rx="43.57" ry="43.57"/>
    <path class="cls-2" d="M402.65,328.96c-.12,7.61.09,23.21,0,30.86.1,25.87-22,45.6-47.71,43.73-6.88.04-19.68-.03-26.6,0-23.74.1-43.35-19.14-43.66-42.88-.05-9.94.03-23.48-.02-33.44-.54-17.74-9.16-32.84-22.15-45.25-13.2-12.6-28.99-21.12-45.41-28.86-17.25-8.13-35.19-14.8-53.56-19.9-15.48-4.29-32.05-7.99-43.24-20.44-7.91-8.71-11.5-19.56-10.89-32.05-.05-6.83.03-19.72,0-26.65-.16-23.97,19.51-43.76,43.49-43.73,8.92.11,23.83-.09,31.44,0,23.56.16,42.68,19.64,43.03,42.53.05,9.35-.02,23.4.03,33.11.23,44.69,50.63,68.08,85.78,82.42,11.8,4.81,23.88,8.91,36.17,12.26,12.45,3.39,25.77,6.22,36.32,14.09,10.62,7.92,16.95,20.97,16.98,34.17v.03Z"/>
    <rect class="cls-2" x="109.43" y="285.65" width="117.98" height="117.95" rx="43.57" ry="43.57"/>
  </g>
</svg>