<?xml version="1.0" encoding="UTF-8"?>
<svg id="Assets" xmlns="http://www.w3.org/2000/svg" viewBox="0 0 1850.75 500">
  <defs>
    <style>
      .cls-1 {
        fill: #fff;
      }
    </style>
  </defs>
  <g>
    <path class="cls-1" d="M514.37,236.64v-107.1h-38.67v-25.59h106.91v25.59h-39.81v107.1h-28.43Z"/>
    <path class="cls-1" d="M641.75,103.96h-25.4l-51.94,132.69h28.06l10.5-27.87h50.91l10.42,27.87h29.19l-51.75-132.69ZM611.62,185.85l7.58-20.1c1.01-2.91,2.08-5.87,3.22-8.91,1.13-3.03,2.21-6.16,3.22-9.38,1-3.2,1.98-6.34,2.92-9.42.93,2.98,1.92,6.08,2.96,9.32,1.13,3.54,2.23,6.89,3.31,10.05,1.07,3.16,1.99,5.74,2.75,7.77l7.73,20.67h-33.69Z"/>
    <path class="cls-1" d="M702.01,236.64V103.95h28.43v132.69h-28.43Z"/>
    <path class="cls-1" d="M754.35,236.64V103.95h28.43v107.1h60.09v25.59h-88.52Z"/>
    <path class="cls-1" d="M912.75,238.54c-9.73,0-18.7-1.71-26.92-5.12-8.22-3.41-15.39-8.18-21.51-14.31-6.13-6.13-10.84-13.39-14.12-21.8-3.29-8.4-4.93-17.53-4.93-27.39s1.64-19.11,4.93-27.39c3.29-8.28,7.99-15.51,14.12-21.7,6.13-6.19,13.3-10.99,21.51-14.41,8.21-3.41,17.18-5.12,26.92-5.12s18.86,1.71,27.01,5.12c8.15,3.41,15.29,8.22,21.42,14.41,6.13,6.19,10.83,13.46,14.12,21.8,3.28,8.34,4.93,17.44,4.93,27.3s-1.64,18.96-4.93,27.3c-3.29,8.34-7.99,15.61-14.12,21.8-6.13,6.19-13.27,10.99-21.42,14.41-8.15,3.41-17.16,5.12-27.01,5.12ZM912.75,211.62c5.56,0,10.71-1.01,15.45-3.03,4.74-2.02,8.81-4.93,12.23-8.72,3.41-3.79,6.1-8.21,8.06-13.27,1.96-5.05,2.94-10.62,2.94-16.68s-.98-11.63-2.94-16.68c-1.96-5.05-4.64-9.45-8.06-13.17-3.41-3.73-7.49-6.63-12.23-8.72-4.74-2.09-9.89-3.13-15.45-3.13s-10.68,1.04-15.35,3.13c-4.68,2.09-8.79,4.99-12.32,8.72-3.54,3.73-6.23,8.12-8.06,13.17-1.83,5.06-2.75,10.62-2.75,16.68s.91,11.63,2.75,16.68c1.83,5.06,4.52,9.48,8.06,13.27,3.54,3.79,7.64,6.7,12.32,8.72,4.67,2.02,9.79,3.03,15.35,3.03Z"/>
    <path class="cls-1" d="M1074.08,184.91c1-.47,1.99-.98,2.95-1.52,6.7-3.8,11.98-8.95,15.83-15.45,3.85-6.51,5.78-13.74,5.78-21.71s-1.93-15.29-5.78-21.61c-3.86-6.32-9.13-11.34-15.83-15.07-6.69-3.73-14.15-5.59-22.36-5.59h-58.77v132.69h27.49v-47.58h20.96l26.8,47.58,32.98.19-30.06-51.93ZM1023.4,128.6h26.34c4.17,0,7.84.8,10.99,2.37,3.16,1.58,5.56,3.76,7.21,6.54,1.64,2.78,2.46,6.07,2.46,9.86,0,3.54-.7,6.73-2.09,9.57-1.39,2.85-3.39,5.05-5.97,6.64-2.59,1.58-5.59,2.37-9,2.37h-29.95v-37.34Z"/>
    <polygon class="cls-1" points="1208.47 211.63 1208.47 236.65 1117.49 236.65 1117.49 103.96 1207.15 103.96 1207.15 128.98 1145.16 128.98 1145.16 156.84 1198.05 156.84 1198.05 181.1 1145.16 181.1 1145.16 211.63 1208.47 211.63"/>
    <path class="cls-1" d="M1342.19,143.38c-3.03-8.08-7.42-15.08-13.17-20.94-5.75-5.88-12.58-10.42-20.47-13.65-7.9-3.23-16.72-4.83-26.44-4.83h-54.4v132.69h54.4c9.72,0,18.58-1.61,26.54-4.83,7.96-3.22,14.79-7.78,20.47-13.65,5.69-5.88,10.04-12.89,13.07-21.04,3.04-8.15,4.56-17.09,4.56-26.82s-1.52-18.83-4.56-26.92ZM1315.46,187.17c-1.64,5.05-4.07,9.32-7.3,12.79-3.21,3.48-7.11,6.2-11.65,8.15-4.55,1.97-9.67,2.93-15.35,2.93h-25.02v-81.51h25.02c5.69,0,10.81.98,15.35,2.93,4.55,1.97,8.44,4.71,11.65,8.25,3.23,3.54,5.66,7.81,7.3,12.79,1.65,5,2.46,10.59,2.46,16.78s-.82,11.82-2.46,16.87Z"/>
    <path class="cls-1" d="M548.3,266.43h-25.4l-51.94,132.7h28.06l10.5-27.87h50.91l10.42,27.87h29.19l-51.75-132.7ZM518.17,348.32l7.58-20.09c1.01-2.91,2.08-5.88,3.22-8.91,1.14-3.03,2.21-6.17,3.22-9.39,1-3.2,1.99-6.33,2.92-9.41.93,2.97,1.92,6.08,2.96,9.32,1.13,3.54,2.24,6.89,3.32,10.04,1.06,3.16,1.98,5.75,2.74,7.78l7.73,20.66h-33.69Z"/>
    <path class="cls-1" d="M608.49,399.12v-132.69h56.3c7.83,0,14.94,1.87,21.32,5.59,6.38,3.73,11.44,8.81,15.17,15.26,3.73,6.45,5.59,13.71,5.59,21.8s-1.87,15.61-5.59,22.18c-3.73,6.57-8.78,11.79-15.17,15.64-6.38,3.86-13.49,5.78-21.32,5.78h-27.87v46.44h-28.43ZM636.54,327.09h25.02c3.03,0,5.75-.79,8.15-2.37,2.4-1.58,4.33-3.7,5.78-6.35,1.45-2.65,2.18-5.69,2.18-9.1s-.73-6.41-2.18-9c-1.45-2.59-3.38-4.61-5.78-6.07-2.4-1.45-5.12-2.18-8.15-2.18h-25.02v35.07Z"/>
    <path class="cls-1" d="M718.94,399.12v-132.69h56.3c7.83,0,14.94,1.87,21.33,5.59,6.38,3.73,11.44,8.81,15.17,15.26,3.73,6.45,5.59,13.71,5.59,21.8s-1.87,15.61-5.59,22.18c-3.73,6.57-8.78,11.79-15.17,15.64-6.38,3.86-13.49,5.78-21.33,5.78h-27.87v46.44h-28.43ZM747,327.09h25.02c3.03,0,5.75-.79,8.15-2.37,2.4-1.58,4.33-3.7,5.78-6.35,1.45-2.65,2.18-5.69,2.18-9.1s-.73-6.41-2.18-9c-1.45-2.59-3.38-4.61-5.78-6.07-2.4-1.45-5.12-2.18-8.15-2.18h-25.02v35.07Z"/>
    <path class="cls-1" d="M829.4,399.12v-132.69h28.43v107.1h60.09v25.59h-88.52Z"/>
    <path class="cls-1" d="M929.94,399.12v-132.69h28.43v132.69h-28.43Z"/>
    <path class="cls-1" d="M1041.48,401.02c-9.73,0-18.67-1.68-26.82-5.02-8.15-3.35-15.23-8.09-21.23-14.22-6-6.13-10.65-13.39-13.93-21.8-3.29-8.4-4.93-17.6-4.93-27.58s1.71-18.73,5.12-27.01c3.41-8.28,8.21-15.48,14.41-21.61,6.19-6.13,13.46-10.9,21.8-14.31,8.34-3.41,17.37-5.12,27.11-5.12,6.32,0,12.54.85,18.67,2.56,6.13,1.71,11.75,4.2,16.87,7.49,5.12,3.29,9.51,7.2,13.17,11.75l-17.82,19.71c-3.03-3.03-6.16-5.65-9.38-7.87-3.22-2.21-6.63-3.92-10.24-5.12-3.6-1.2-7.43-1.8-11.47-1.8-5.43,0-10.52,1.01-15.26,3.03-4.74,2.02-8.88,4.83-12.42,8.44-3.54,3.6-6.35,7.96-8.44,13.08-2.09,5.12-3.13,10.78-3.13,16.97s1.01,12.04,3.03,17.15c2.02,5.12,4.86,9.48,8.53,13.08,3.66,3.6,8.06,6.38,13.17,8.34,5.12,1.96,10.77,2.94,16.97,2.94,4.04,0,7.96-.57,11.75-1.71,3.79-1.14,7.3-2.72,10.52-4.74,3.22-2.02,6.1-4.36,8.63-7.01l13.84,22.18c-3.03,3.41-7.11,6.51-12.23,9.29-5.12,2.78-10.84,4.96-17.16,6.54-6.32,1.58-12.7,2.37-19.14,2.37Z"/>
    <path class="cls-1" d="M1168.39,266.43h-25.4l-51.94,132.7h28.06l10.5-27.87h50.91l10.42,27.87h29.19l-51.75-132.7ZM1138.26,348.32l7.58-20.09c1.01-2.91,2.08-5.88,3.22-8.91,1.13-3.03,2.21-6.17,3.22-9.39,1-3.19,1.97-6.33,2.92-9.4.93,2.97,1.92,6.08,2.95,9.31,1.14,3.54,2.24,6.89,3.32,10.04,1.07,3.16,1.99,5.75,2.75,7.78l7.73,20.66h-33.69Z"/>
    <path class="cls-1" d="M1241.02,399.12v-107.1h-38.67v-25.59h106.91v25.59h-39.81v107.1h-28.43Z"/>
    <path class="cls-1" d="M1319.99,399.12v-132.69h28.43v132.69h-28.43Z"/>
    <path class="cls-1" d="M1432.1,401.02c-9.73,0-18.7-1.71-26.92-5.12-8.22-3.41-15.39-8.18-21.51-14.31-6.13-6.13-10.84-13.39-14.12-21.8-3.29-8.4-4.93-17.53-4.93-27.39s1.64-19.11,4.93-27.39c3.28-8.28,7.99-15.51,14.12-21.7,6.13-6.19,13.3-10.99,21.51-14.41,8.21-3.41,17.19-5.12,26.92-5.12s18.86,1.71,27.01,5.12c8.15,3.41,15.29,8.22,21.42,14.41,6.13,6.19,10.83,13.46,14.12,21.8,3.28,8.34,4.93,17.44,4.93,27.3s-1.64,18.96-4.93,27.3c-3.29,8.34-7.99,15.61-14.12,21.8-6.13,6.19-13.27,10.99-21.42,14.41-8.15,3.41-17.16,5.12-27.01,5.12ZM1432.1,374.1c5.56,0,10.71-1.01,15.45-3.03,4.74-2.02,8.81-4.93,12.23-8.72,3.41-3.79,6.09-8.21,8.06-13.27,1.96-5.05,2.94-10.62,2.94-16.68s-.98-11.63-2.94-16.68c-1.96-5.05-4.64-9.45-8.06-13.17-3.41-3.73-7.49-6.63-12.23-8.72-4.74-2.09-9.89-3.13-15.45-3.13s-10.68,1.04-15.35,3.13c-4.68,2.09-8.78,4.99-12.32,8.72-3.54,3.73-6.23,8.12-8.06,13.17-1.83,5.06-2.75,10.62-2.75,16.68s.91,11.63,2.75,16.68c1.83,5.06,4.52,9.48,8.06,13.27,3.54,3.79,7.64,6.7,12.32,8.72,4.67,2.02,9.79,3.03,15.35,3.03Z"/>
    <path class="cls-1" d="M1632.78,266.43v132.7h-25.78l-66.63-89.07c.2,2.14.39,4.12.58,5.95.44,4.61.79,8.62,1.04,12.04.26,3.41.48,6.39.66,8.91.19,2.53.32,4.93.38,7.2.07,2.27.1,4.68.1,7.2v47.78h-27.87v-132.7h25.4l67.03,90.59c-.11-.98-.21-1.95-.31-2.92-.38-3.73-.73-7.52-1.05-11.37-.32-3.86-.57-7.83-.76-11.94-.19-4.1-.35-8.47-.47-13.08-.13-4.61-.19-9.64-.19-15.08v-36.2h27.86Z"/>
    <path class="cls-1" d="M1699.94,401.02c-8.22,0-15.7-1.01-22.46-3.03-6.76-2.02-12.77-4.99-18.01-8.91-5.25-3.92-9.95-8.65-14.12-14.22l17.82-20.28c6.19,8.6,12.35,14.44,18.48,17.53,6.13,3.1,12.79,4.64,20,4.64,3.92,0,7.42-.54,10.52-1.61,3.1-1.07,5.53-2.62,7.3-4.64,1.77-2.02,2.65-4.42,2.65-7.2,0-2.02-.44-3.89-1.33-5.59-.89-1.71-2.15-3.22-3.79-4.55-1.64-1.33-3.6-2.53-5.88-3.6-2.27-1.07-4.8-2.02-7.58-2.84-2.78-.82-5.81-1.48-9.1-1.99-7.08-1.64-13.27-3.63-18.58-5.97-5.31-2.34-9.73-5.24-13.27-8.72-3.54-3.47-6.16-7.42-7.87-11.85-1.71-4.42-2.56-9.41-2.56-14.98s1.26-10.96,3.79-15.83c2.53-4.86,6.03-9.07,10.52-12.61,4.48-3.54,9.67-6.26,15.54-8.15,5.88-1.9,12.1-2.84,18.67-2.84,8.09,0,15.16.92,21.23,2.75,6.07,1.83,11.34,4.45,15.83,7.87,4.48,3.41,8.25,7.58,11.28,12.51l-18.01,17.44c-2.65-3.54-5.53-6.51-8.63-8.91-3.1-2.4-6.44-4.2-10.05-5.4-3.6-1.2-7.3-1.8-11.09-1.8-4.17,0-7.77.54-10.8,1.61-3.03,1.08-5.4,2.62-7.11,4.64-1.71,2.02-2.56,4.49-2.56,7.39,0,2.27.57,4.3,1.71,6.07,1.14,1.77,2.78,3.32,4.93,4.64,2.15,1.33,4.74,2.5,7.77,3.51,3.03,1.01,6.38,1.9,10.05,2.65,6.95,1.39,13.2,3.22,18.77,5.5,5.56,2.27,10.33,5.02,14.31,8.25,3.98,3.22,7.04,7.01,9.19,11.37,2.15,4.36,3.22,9.26,3.22,14.69,0,8.97-2.15,16.62-6.44,22.94-4.3,6.32-10.24,11.15-17.82,14.5-7.58,3.35-16.43,5.02-26.54,5.02Z"/>
  </g>
  <g>
    <rect class="cls-1" x="279.67" y="99.86" width="120.82" height="120.79" rx="44.63" ry="44.63"/>
    <path class="cls-1" d="M400.49,323.74c-.12,7.8.09,23.77,0,31.61.1,26.49-22.54,46.7-48.86,44.78-7.04.04-20.16-.03-27.24,0-24.31.1-44.4-19.6-44.71-43.92-.05-10.18.03-24.04-.02-34.25-.55-18.17-9.38-33.63-22.69-46.34-13.52-12.91-29.69-21.63-46.5-29.55-17.66-8.33-36.04-15.16-54.85-20.38-15.85-4.4-32.82-8.19-44.29-20.93-8.1-8.92-11.78-20.04-11.15-32.82-.05-7,.03-20.2,0-27.29-.16-24.55,19.98-44.82,44.54-44.78,9.14.11,24.4-.09,32.2,0,24.13.16,43.71,20.11,44.07,43.55.05,9.58-.02,23.97.03,33.9.24,45.77,51.85,69.73,87.85,84.41,12.08,4.93,24.46,9.12,37.04,12.55,12.75,3.47,26.39,6.37,37.2,14.43,10.88,8.11,17.35,21.47,17.39,35v.03Z"/>
    <rect class="cls-1" x="100.2" y="279.39" width="120.82" height="120.79" rx="44.63" ry="44.63"/>
  </g>
</svg>